<svg xmlns="http://www.w3.org/2000/svg" viewBox="0 0 53.25 53.25"><defs><style>.cls-1{fill:#92cb70;}.cls-2{fill:#fff;fill-rule:evenodd;}</style></defs><g id="Layer_2" data-name="Layer 2"><g id="Layer_1-2" data-name="Layer 1"><circle class="cls-1" cx="26.63" cy="26.63" r="26.63"/><path class="cls-2" d="M16.37,15.09H37.65a1.81,1.81,0,0,1,1.81,1.8v20.8a1.81,1.81,0,0,1-1.81,1.8H16.37a1.81,1.81,0,0,1-1.81-1.8V16.89a1.81,1.81,0,0,1,1.81-1.8ZM28,33.58h6.17a.72.72,0,0,1,.72.72v1.35a.72.72,0,0,1-.72.72H28a.72.72,0,0,1-.72-.72V34.3a.72.72,0,0,1,.72-.72ZM19.88,27.4H34.14a1.29,1.29,0,0,1,.9.37h0a1.23,1.23,0,0,1,.37.89v1.79a1.23,1.23,0,0,1-.37.89h0a1.27,1.27,0,0,1-.9.37H19.88a1.29,1.29,0,0,1-.9-.37h0a1.23,1.23,0,0,1-.37-.89V28.67a1.25,1.25,0,0,1,.37-.89h0a1.29,1.29,0,0,1,.9-.37Zm14.26,1.1H19.88a.17.17,0,0,0-.17.17v1.79a.17.17,0,0,0,.17.17H34.14a.17.17,0,0,0,.17-.17V28.67a.17.17,0,0,0-.17-.17ZM19.88,21.77H34.14a1.29,1.29,0,0,1,.9.37h0a1.27,1.27,0,0,1,.37.9v1.79a1.25,1.25,0,0,1-.37.89h0a1.31,1.31,0,0,1-.9.37H19.88a1.33,1.33,0,0,1-.9-.37h0a1.25,1.25,0,0,1-.37-.89V23a1.29,1.29,0,0,1,.37-.9h0a1.29,1.29,0,0,1,.9-.37Zm14.26,1.1H19.88a.17.17,0,0,0-.17.17v1.79a.17.17,0,0,0,.17.17H34.14a.17.17,0,0,0,.17-.17V23a.17.17,0,0,0-.17-.17Zm3.68-2.31H16.28V37.29a.48.48,0,0,0,.14.35.49.49,0,0,0,.36.15H37.31a.49.49,0,0,0,.35-.15.45.45,0,0,0,.15-.35V20.56ZM35.94,17a.89.89,0,1,1-.89.89.89.89,0,0,1,.89-.89Zm-6,0a.89.89,0,1,1-.89.89.89.89,0,0,1,.89-.89Zm3,0a.89.89,0,1,1-.88.89.89.89,0,0,1,.88-.89Z"/></g></g></svg>