<svg xmlns="http://www.w3.org/2000/svg" viewBox="0 0 52.42 51.12"><defs><style>.cls-1{fill:#1f1e1f;fill-rule:evenodd;}</style></defs><g id="Layer_2" data-name="Layer 2"><g id="Layer_1-2" data-name="Layer 1"><path class="cls-1" d="M26.21,0a26.21,26.21,0,0,0-8.29,51.08c1.32.24,1.79-.57,1.79-1.27s0-2.27,0-4.45c-7.29,1.58-8.83-3.52-8.83-3.52C9.66,38.82,7.94,38,7.94,38c-2.38-1.63.18-1.59.18-1.59a5.48,5.48,0,0,1,4,2.7c2.34,4,6.14,2.85,7.63,2.18a5.62,5.62,0,0,1,1.67-3.51c-5.82-.66-11.94-2.91-11.94-12.95a10.15,10.15,0,0,1,2.69-7,9.53,9.53,0,0,1,.26-6.94s2.2-.7,7.21,2.69a24.62,24.62,0,0,1,13.12,0c5-3.39,7.2-2.69,7.2-2.69a9.42,9.42,0,0,1,.26,6.94,10.11,10.11,0,0,1,2.7,7c0,10.07-6.13,12.28-12,12.93a6.27,6.27,0,0,1,1.78,4.86c0,3.5,0,6.33,0,7.18s.47,1.52,1.8,1.27A26.22,26.22,0,0,0,26.21,0Z"/></g></g></svg>