<svg xmlns="http://www.w3.org/2000/svg" viewBox="0 0 120.42 53.52"><defs><style>.cls-1{fill:#f2685d;}.cls-2{fill:#7bc9f0;}.cls-3{fill:#fff;}</style></defs><g id="Layer_2" data-name="Layer 2"><g id="Layer_1-2" data-name="Layer 1"><circle class="cls-1" cx="26.63" cy="26.89" r="26.63"/><circle class="cls-2" cx="93.79" cy="26.63" r="26.63"/><path class="cls-3" d="M11.24,27.12l7.28,4a2.76,2.76,0,0,1,.73.55,1,1,0,0,1,.18.62,1.14,1.14,0,0,1-.34.81,1.09,1.09,0,0,1-.79.35,2.08,2.08,0,0,1-.89-.33l-10.84-6,10.84-6a2.19,2.19,0,0,1,.88-.32,1.16,1.16,0,0,1,1.14,1.15,1,1,0,0,1-.18.62,2.76,2.76,0,0,1-.73.55Z"/><path class="cls-3" d="M31.25,19.6,24,35.12a2.18,2.18,0,0,1-.49.76,1.08,1.08,0,0,1-.69.23,1.11,1.11,0,0,1-.8-.33,1,1,0,0,1-.33-.74,2.41,2.41,0,0,1,.26-.87l7.23-15.51a2.36,2.36,0,0,1,.48-.76,1.12,1.12,0,0,1,.69-.23,1.1,1.1,0,0,1,.79.32,1,1,0,0,1,.33.74A2.41,2.41,0,0,1,31.25,19.6Z"/><path class="cls-3" d="M42,27.12l-7.28-4a2.6,2.6,0,0,1-.73-.55,1,1,0,0,1-.18-.62A1.16,1.16,0,0,1,35,20.77a2.19,2.19,0,0,1,.88.32l10.84,6-10.84,6a2.1,2.1,0,0,1-.88.33,1.1,1.1,0,0,1-.8-.34,1.15,1.15,0,0,1-.34-.82A1,1,0,0,1,34,31.7a2.6,2.6,0,0,1,.73-.55Z"/><path class="cls-3" d="M86.63,26.5a3.12,3.12,0,0,1,.64,1,5.6,5.6,0,0,1,.17,1.62V33.4a1.1,1.1,0,0,0,.2.76,1.14,1.14,0,0,0,.75.28,1.36,1.36,0,0,1,.9.42,1.32,1.32,0,0,1,.35.92,1.34,1.34,0,0,1-.4,1,1.39,1.39,0,0,1-1,.39,3.34,3.34,0,0,1-1.68-.47,3.86,3.86,0,0,1-1.4-1.5,3.1,3.1,0,0,1-.38-1.57V28.9a1.2,1.2,0,0,0-.18-.77,1.28,1.28,0,0,0-.78-.28,1.44,1.44,0,0,1-.92-.42,1.53,1.53,0,0,1,0-1.87,1.44,1.44,0,0,1,.92-.42,1.23,1.23,0,0,0,.74-.24,1.26,1.26,0,0,0,.22-.81V19.64a3.43,3.43,0,0,1,1-2.48,3.29,3.29,0,0,1,2.41-1.05,1.4,1.4,0,0,1,1,.39,1.34,1.34,0,0,1,.4,1,1.31,1.31,0,0,1-.35.91,1.42,1.42,0,0,1-.92.43,1,1,0,0,0-.7.23,1.24,1.24,0,0,0-.23.81v4.24a4.21,4.21,0,0,1-.18,1.39A3.49,3.49,0,0,1,86.63,26.5Z"/><path class="cls-3" d="M101,26.5a3.41,3.41,0,0,1-.63-1,4.27,4.27,0,0,1-.18-1.38V19.85a.86.86,0,0,0-1-1,1.42,1.42,0,0,1-.9-.43,1.31,1.31,0,0,1-.35-.91,1.3,1.3,0,0,1,.4-1,1.37,1.37,0,0,1,1-.39,3.34,3.34,0,0,1,1.68.47,3.86,3.86,0,0,1,1.4,1.5,3.16,3.16,0,0,1,.38,1.56v4.45a1.26,1.26,0,0,0,.18.78,1.28,1.28,0,0,0,.78.28,1.39,1.39,0,0,1,.92.41,1.53,1.53,0,0,1,0,1.87,1.44,1.44,0,0,1-.92.42,1.23,1.23,0,0,0-.74.24,1.21,1.21,0,0,0-.22.81v4.7a3.43,3.43,0,0,1-1,2.49,3.29,3.29,0,0,1-2.41,1,1.38,1.38,0,0,1-1-.39,1.3,1.3,0,0,1-.4-1,1.31,1.31,0,0,1,.35-.91,1.42,1.42,0,0,1,.92-.43,1,1,0,0,0,.7-.23,1.24,1.24,0,0,0,.23-.81V29.16a5.6,5.6,0,0,1,.17-1.62A3,3,0,0,1,101,26.5Z"/></g></g></svg>