<svg xmlns="http://www.w3.org/2000/svg" xmlns:xlink="http://www.w3.org/1999/xlink" viewBox="0 0 40 40"><defs><style>.cls-1{fill:url(#linear-gradient);}.cls-2{fill:url(#linear-gradient-2);}</style><linearGradient id="linear-gradient" x1="-1.93" y1="0.08" x2="54.79" y2="51.6" gradientUnits="userSpaceOnUse"><stop offset="0" stop-color="#f8991d"/><stop offset="1" stop-color="#f8991d"/></linearGradient><linearGradient id="linear-gradient-2" x1="9.59" y1="9.59" x2="30.41" y2="30.41" gradientUnits="userSpaceOnUse"><stop offset="0" stop-color="#fbfcfc"/><stop offset="1" stop-color="#e0dbdc"/></linearGradient></defs><g id="Layer_2" data-name="Layer 2"><g id="Layer_1-2" data-name="Layer 1"><circle class="cls-1" cx="20" cy="20" r="20"/><path class="cls-2" d="M20,5.27A14.73,14.73,0,1,0,34.73,20,14.74,14.74,0,0,0,20,5.27Zm-4.87,7.65A2.19,2.19,0,1,1,13,15.11,2.19,2.19,0,0,1,15.13,12.92ZM26.35,27H13.14a1.65,1.65,0,0,1,0-3.3H26.35a1.65,1.65,0,1,1,0,3.3Zm-.52-9.69A2.19,2.19,0,1,1,28,15.11,2.19,2.19,0,0,1,25.83,17.3Z"/></g></g></svg>