<svg xmlns="http://www.w3.org/2000/svg" xmlns:xlink="http://www.w3.org/1999/xlink" viewBox="0 0 40 40"><defs><style>.cls-1{fill:url(#linear-gradient);}.cls-2{fill:url(#linear-gradient-2);}</style><linearGradient id="linear-gradient" x1="0.15" y1="1.36" x2="51.67" y2="49.75" gradientUnits="userSpaceOnUse"><stop offset="0" stop-color="#88bc40"/><stop offset="0.71" stop-color="#87bc40"/></linearGradient><linearGradient id="linear-gradient-2" x1="9.59" y1="30.41" x2="29.44" y2="10.56" gradientUnits="userSpaceOnUse"><stop offset="0" stop-color="#fbfcfc"/><stop offset="1" stop-color="#e0dbdc"/></linearGradient></defs><g id="Layer_2" data-name="Layer 2"><g id="Layer_1-2" data-name="Layer 1"><circle class="cls-1" cx="20" cy="20" r="20"/><path class="cls-2" d="M20,5.27A14.73,14.73,0,1,0,34.73,20,14.74,14.74,0,0,0,20,5.27Zm5.83,7.65a2.19,2.19,0,1,1-2.19,2.19A2.19,2.19,0,0,1,25.83,12.92Zm-10.7,0A2.19,2.19,0,1,1,13,15.11,2.19,2.19,0,0,1,15.13,12.92Zm4.87,16a8.76,8.76,0,0,1-8.39-6.25,11.74,11.74,0,0,0,16.78,0A8.76,8.76,0,0,1,20,28.93Z"/></g></g></svg>